<mxfile host="app.diagrams.net" agent="Mozilla/5.0 (Windows NT 10.0; Win64; x64) AppleWebKit/537.36 (KHTML, like Gecko) Chrome/134.0.0.0 Safari/537.36" version="26.1.1">
  <diagram name="Page-1" id="eKDoW6xRWBhK0Lj5wze4">
    <mxGraphModel dx="2173" dy="743" grid="1" gridSize="10" guides="1" tooltips="1" connect="1" arrows="1" fold="1" page="1" pageScale="1" pageWidth="850" pageHeight="1100" math="0" shadow="0">
      <root>
        <mxCell id="0" />
        <mxCell id="1" parent="0" />
        <mxCell id="T9koa7xF462r8cfVfyGL-1" value="USER" style="whiteSpace=wrap;html=1;align=center;" vertex="1" parent="1">
          <mxGeometry x="70" y="160" width="100" height="40" as="geometry" />
        </mxCell>
        <mxCell id="T9koa7xF462r8cfVfyGL-3" value="&lt;span id=&quot;docs-internal-guid-8e87a3f7-7fff-5375-12b0-24a81bae6389&quot;&gt;&lt;span style=&quot;font-size: 12pt; font-family: Arial, sans-serif; background-color: transparent; font-variant-numeric: normal; font-variant-east-asian: normal; font-variant-alternates: normal; font-variant-position: normal; font-variant-emoji: normal; vertical-align: baseline; white-space-collapse: preserve;&quot;&gt;Categories&lt;/span&gt;&lt;/span&gt;" style="whiteSpace=wrap;html=1;align=center;" vertex="1" parent="1">
          <mxGeometry x="385" y="535" width="100" height="40" as="geometry" />
        </mxCell>
        <mxCell id="T9koa7xF462r8cfVfyGL-7" value="Product" style="whiteSpace=wrap;html=1;align=center;" vertex="1" parent="1">
          <mxGeometry x="630" y="420" width="100" height="40" as="geometry" />
        </mxCell>
        <mxCell id="T9koa7xF462r8cfVfyGL-8" value="Order" style="whiteSpace=wrap;html=1;align=center;" vertex="1" parent="1">
          <mxGeometry x="450" y="150" width="100" height="40" as="geometry" />
        </mxCell>
        <mxCell id="T9koa7xF462r8cfVfyGL-9" value="Shipping" style="whiteSpace=wrap;html=1;align=center;" vertex="1" parent="1">
          <mxGeometry x="-25" y="440" width="100" height="40" as="geometry" />
        </mxCell>
        <mxCell id="T9koa7xF462r8cfVfyGL-12" value="User_name" style="ellipse;whiteSpace=wrap;html=1;align=center;" vertex="1" parent="1">
          <mxGeometry y="90" width="110" height="40" as="geometry" />
        </mxCell>
        <mxCell id="T9koa7xF462r8cfVfyGL-13" value="" style="endArrow=none;html=1;rounded=0;entryX=0.166;entryY=-0.075;entryDx=0;entryDy=0;entryPerimeter=0;exitX=0.5;exitY=1;exitDx=0;exitDy=0;" edge="1" parent="1" source="T9koa7xF462r8cfVfyGL-12" target="T9koa7xF462r8cfVfyGL-1">
          <mxGeometry relative="1" as="geometry">
            <mxPoint x="94" y="130" as="sourcePoint" />
            <mxPoint x="94.33" y="170" as="targetPoint" />
            <Array as="points" />
          </mxGeometry>
        </mxCell>
        <mxCell id="T9koa7xF462r8cfVfyGL-15" value="Mobile_no" style="ellipse;shape=doubleEllipse;margin=3;whiteSpace=wrap;html=1;align=center;" vertex="1" parent="1">
          <mxGeometry x="-60" y="210" width="100" height="40" as="geometry" />
        </mxCell>
        <mxCell id="T9koa7xF462r8cfVfyGL-17" value="" style="endArrow=none;html=1;rounded=0;entryX=1;entryY=0;entryDx=0;entryDy=0;" edge="1" parent="1" target="T9koa7xF462r8cfVfyGL-15">
          <mxGeometry relative="1" as="geometry">
            <mxPoint x="70" y="200" as="sourcePoint" />
            <mxPoint x="90" y="230" as="targetPoint" />
            <Array as="points">
              <mxPoint x="70" y="190" />
            </Array>
          </mxGeometry>
        </mxCell>
        <mxCell id="T9koa7xF462r8cfVfyGL-25" value="categories_name" style="ellipse;whiteSpace=wrap;html=1;align=center;" vertex="1" parent="1">
          <mxGeometry x="355" y="465" width="100" height="40" as="geometry" />
        </mxCell>
        <mxCell id="T9koa7xF462r8cfVfyGL-28" value="Categoriesid" style="ellipse;whiteSpace=wrap;html=1;align=center;fontStyle=4;" vertex="1" parent="1">
          <mxGeometry x="445" y="595" width="100" height="40" as="geometry" />
        </mxCell>
        <mxCell id="T9koa7xF462r8cfVfyGL-29" value="" style="endArrow=none;html=1;rounded=0;exitX=0.75;exitY=1;exitDx=0;exitDy=0;entryX=0.395;entryY=0.071;entryDx=0;entryDy=0;entryPerimeter=0;" edge="1" parent="1" source="T9koa7xF462r8cfVfyGL-3" target="T9koa7xF462r8cfVfyGL-28">
          <mxGeometry relative="1" as="geometry">
            <mxPoint x="400" y="635" as="sourcePoint" />
            <mxPoint x="400" y="635" as="targetPoint" />
            <Array as="points" />
          </mxGeometry>
        </mxCell>
        <mxCell id="T9koa7xF462r8cfVfyGL-31" value="" style="endArrow=none;html=1;rounded=0;entryX=0.25;entryY=0;entryDx=0;entryDy=0;exitX=0.602;exitY=1.12;exitDx=0;exitDy=0;exitPerimeter=0;" edge="1" parent="1" source="T9koa7xF462r8cfVfyGL-25" target="T9koa7xF462r8cfVfyGL-3">
          <mxGeometry relative="1" as="geometry">
            <mxPoint x="380" y="525" as="sourcePoint" />
            <mxPoint x="480" y="515" as="targetPoint" />
          </mxGeometry>
        </mxCell>
        <mxCell id="T9koa7xF462r8cfVfyGL-33" style="edgeStyle=orthogonalEdgeStyle;rounded=0;orthogonalLoop=1;jettySize=auto;html=1;exitX=0.5;exitY=1;exitDx=0;exitDy=0;" edge="1" parent="1" source="T9koa7xF462r8cfVfyGL-3" target="T9koa7xF462r8cfVfyGL-3">
          <mxGeometry relative="1" as="geometry" />
        </mxCell>
        <mxCell id="T9koa7xF462r8cfVfyGL-35" value="Product_name" style="ellipse;whiteSpace=wrap;html=1;align=center;" vertex="1" parent="1">
          <mxGeometry x="610" y="310" width="100" height="40" as="geometry" />
        </mxCell>
        <mxCell id="T9koa7xF462r8cfVfyGL-36" value="Product_decp." style="ellipse;whiteSpace=wrap;html=1;align=center;" vertex="1" parent="1">
          <mxGeometry x="740" y="320" width="100" height="40" as="geometry" />
        </mxCell>
        <mxCell id="T9koa7xF462r8cfVfyGL-37" value="Product_id" style="ellipse;whiteSpace=wrap;html=1;align=center;fontStyle=4;" vertex="1" parent="1">
          <mxGeometry x="760" y="470" width="100" height="40" as="geometry" />
        </mxCell>
        <mxCell id="T9koa7xF462r8cfVfyGL-38" value="" style="endArrow=none;html=1;rounded=0;entryX=0.25;entryY=0;entryDx=0;entryDy=0;exitX=0.631;exitY=1.017;exitDx=0;exitDy=0;exitPerimeter=0;" edge="1" parent="1" source="T9koa7xF462r8cfVfyGL-35" target="T9koa7xF462r8cfVfyGL-7">
          <mxGeometry relative="1" as="geometry">
            <mxPoint x="660" y="350" as="sourcePoint" />
            <mxPoint x="675" y="390" as="targetPoint" />
            <Array as="points" />
          </mxGeometry>
        </mxCell>
        <mxCell id="T9koa7xF462r8cfVfyGL-42" value="" style="endArrow=none;html=1;rounded=0;exitX=0.35;exitY=0.983;exitDx=0;exitDy=0;exitPerimeter=0;entryX=0.5;entryY=0;entryDx=0;entryDy=0;" edge="1" parent="1" source="T9koa7xF462r8cfVfyGL-36" target="T9koa7xF462r8cfVfyGL-7">
          <mxGeometry relative="1" as="geometry">
            <mxPoint x="710" y="370" as="sourcePoint" />
            <mxPoint x="720" y="410" as="targetPoint" />
          </mxGeometry>
        </mxCell>
        <mxCell id="T9koa7xF462r8cfVfyGL-43" value="" style="endArrow=none;html=1;rounded=0;exitX=0.587;exitY=0.961;exitDx=0;exitDy=0;exitPerimeter=0;" edge="1" parent="1" source="T9koa7xF462r8cfVfyGL-7" target="T9koa7xF462r8cfVfyGL-37">
          <mxGeometry relative="1" as="geometry">
            <mxPoint x="640" y="470" as="sourcePoint" />
            <mxPoint x="800" y="470" as="targetPoint" />
          </mxGeometry>
        </mxCell>
        <mxCell id="T9koa7xF462r8cfVfyGL-45" value="Amount" style="ellipse;whiteSpace=wrap;html=1;align=center;" vertex="1" parent="1">
          <mxGeometry x="550" y="240" width="100" height="40" as="geometry" />
        </mxCell>
        <mxCell id="T9koa7xF462r8cfVfyGL-46" value="Order_id" style="ellipse;whiteSpace=wrap;html=1;align=center;fontStyle=4;" vertex="1" parent="1">
          <mxGeometry x="600" y="40" width="100" height="40" as="geometry" />
        </mxCell>
        <mxCell id="T9koa7xF462r8cfVfyGL-47" value="" style="endArrow=none;html=1;rounded=0;entryX=0.078;entryY=0.62;entryDx=0;entryDy=0;entryPerimeter=0;exitX=1;exitY=0.5;exitDx=0;exitDy=0;" edge="1" parent="1" source="T9koa7xF462r8cfVfyGL-8" target="T9koa7xF462r8cfVfyGL-46">
          <mxGeometry relative="1" as="geometry">
            <mxPoint x="500" y="149.40999999999997" as="sourcePoint" />
            <mxPoint x="640" y="149" as="targetPoint" />
          </mxGeometry>
        </mxCell>
        <mxCell id="T9koa7xF462r8cfVfyGL-49" value="User_id" style="ellipse;whiteSpace=wrap;html=1;align=center;fontStyle=4;" vertex="1" parent="1">
          <mxGeometry x="120" y="100" width="100" height="40" as="geometry" />
        </mxCell>
        <mxCell id="T9koa7xF462r8cfVfyGL-50" value="" style="endArrow=none;html=1;rounded=0;exitX=0.354;exitY=0.983;exitDx=0;exitDy=0;exitPerimeter=0;entryX=0.635;entryY=-0.027;entryDx=0;entryDy=0;entryPerimeter=0;" edge="1" parent="1" source="T9koa7xF462r8cfVfyGL-49" target="T9koa7xF462r8cfVfyGL-1">
          <mxGeometry relative="1" as="geometry">
            <mxPoint x="80" y="295" as="sourcePoint" />
            <mxPoint x="70" y="340" as="targetPoint" />
          </mxGeometry>
        </mxCell>
        <mxCell id="T9koa7xF462r8cfVfyGL-51" value="Product_id" style="ellipse;whiteSpace=wrap;html=1;align=center;" vertex="1" parent="1">
          <mxGeometry x="610" y="190" width="100" height="40" as="geometry" />
        </mxCell>
        <mxCell id="T9koa7xF462r8cfVfyGL-52" value="" style="endArrow=none;html=1;rounded=0;entryX=0.75;entryY=1;entryDx=0;entryDy=0;" edge="1" parent="1" source="T9koa7xF462r8cfVfyGL-51" target="T9koa7xF462r8cfVfyGL-8">
          <mxGeometry relative="1" as="geometry">
            <mxPoint x="450" y="300" as="sourcePoint" />
            <mxPoint x="610" y="300" as="targetPoint" />
          </mxGeometry>
        </mxCell>
        <mxCell id="T9koa7xF462r8cfVfyGL-53" value="" style="endArrow=none;html=1;rounded=0;entryX=0.5;entryY=1;entryDx=0;entryDy=0;exitX=0.5;exitY=0;exitDx=0;exitDy=0;" edge="1" parent="1" source="T9koa7xF462r8cfVfyGL-45" target="T9koa7xF462r8cfVfyGL-8">
          <mxGeometry relative="1" as="geometry">
            <mxPoint x="370" y="200" as="sourcePoint" />
            <mxPoint x="530" y="200" as="targetPoint" />
          </mxGeometry>
        </mxCell>
        <mxCell id="T9koa7xF462r8cfVfyGL-54" value="User_id" style="ellipse;whiteSpace=wrap;html=1;align=center;" vertex="1" parent="1">
          <mxGeometry x="425" y="40" width="100" height="40" as="geometry" />
        </mxCell>
        <mxCell id="T9koa7xF462r8cfVfyGL-55" value="" style="endArrow=none;html=1;rounded=0;exitX=0.5;exitY=1;exitDx=0;exitDy=0;entryX=0.6;entryY=0;entryDx=0;entryDy=0;entryPerimeter=0;" edge="1" parent="1" source="T9koa7xF462r8cfVfyGL-54" target="T9koa7xF462r8cfVfyGL-8">
          <mxGeometry relative="1" as="geometry">
            <mxPoint x="230" y="70" as="sourcePoint" />
            <mxPoint x="520" y="120" as="targetPoint" />
          </mxGeometry>
        </mxCell>
        <mxCell id="T9koa7xF462r8cfVfyGL-56" value="Shipping_id" style="ellipse;whiteSpace=wrap;html=1;align=center;fontStyle=4;" vertex="1" parent="1">
          <mxGeometry x="-180" y="430" width="100" height="40" as="geometry" />
        </mxCell>
        <mxCell id="T9koa7xF462r8cfVfyGL-57" value="" style="endArrow=none;html=1;rounded=0;entryX=0;entryY=0.5;entryDx=0;entryDy=0;exitX=0.633;exitY=0.922;exitDx=0;exitDy=0;exitPerimeter=0;" edge="1" parent="1" source="T9koa7xF462r8cfVfyGL-56" target="T9koa7xF462r8cfVfyGL-9">
          <mxGeometry relative="1" as="geometry">
            <mxPoint x="-75" y="260" as="sourcePoint" />
            <mxPoint x="85" y="260" as="targetPoint" />
          </mxGeometry>
        </mxCell>
        <mxCell id="T9koa7xF462r8cfVfyGL-58" value="User_id" style="ellipse;whiteSpace=wrap;html=1;align=center;" vertex="1" parent="1">
          <mxGeometry x="-105" y="520" width="100" height="40" as="geometry" />
        </mxCell>
        <mxCell id="T9koa7xF462r8cfVfyGL-59" value="" style="endArrow=none;html=1;rounded=0;entryX=0.401;entryY=-0.047;entryDx=0;entryDy=0;entryPerimeter=0;exitX=0.166;exitY=0.993;exitDx=0;exitDy=0;exitPerimeter=0;" edge="1" parent="1" source="T9koa7xF462r8cfVfyGL-9" target="T9koa7xF462r8cfVfyGL-58">
          <mxGeometry relative="1" as="geometry">
            <mxPoint x="-75" y="370" as="sourcePoint" />
            <mxPoint x="85" y="370" as="targetPoint" />
          </mxGeometry>
        </mxCell>
        <mxCell id="T9koa7xF462r8cfVfyGL-60" value="Status" style="ellipse;whiteSpace=wrap;html=1;align=center;" vertex="1" parent="1">
          <mxGeometry x="75" y="500" width="100" height="40" as="geometry" />
        </mxCell>
        <mxCell id="T9koa7xF462r8cfVfyGL-61" value="" style="endArrow=none;html=1;rounded=0;exitX=0.5;exitY=1;exitDx=0;exitDy=0;" edge="1" parent="1" source="T9koa7xF462r8cfVfyGL-9" target="T9koa7xF462r8cfVfyGL-60">
          <mxGeometry relative="1" as="geometry">
            <mxPoint x="-75" y="320" as="sourcePoint" />
            <mxPoint x="85" y="320" as="targetPoint" />
          </mxGeometry>
        </mxCell>
        <mxCell id="T9koa7xF462r8cfVfyGL-63" value="" style="endArrow=none;html=1;rounded=0;entryX=0.75;entryY=1;entryDx=0;entryDy=0;exitX=0;exitY=0;exitDx=0;exitDy=0;" edge="1" parent="1" source="T9koa7xF462r8cfVfyGL-66" target="T9koa7xF462r8cfVfyGL-1">
          <mxGeometry relative="1" as="geometry">
            <mxPoint x="141.05239838631383" y="270.0044306600381" as="sourcePoint" />
            <mxPoint x="300" y="339.40999999999997" as="targetPoint" />
          </mxGeometry>
        </mxCell>
        <mxCell id="T9koa7xF462r8cfVfyGL-66" value="Address" style="ellipse;shape=doubleEllipse;margin=3;whiteSpace=wrap;html=1;align=center;" vertex="1" parent="1">
          <mxGeometry x="140" y="210" width="100" height="40" as="geometry" />
        </mxCell>
        <mxCell id="T9koa7xF462r8cfVfyGL-71" value="makes" style="shape=rhombus;perimeter=rhombusPerimeter;whiteSpace=wrap;html=1;align=center;" vertex="1" parent="1">
          <mxGeometry x="250" y="140" width="120" height="60" as="geometry" />
        </mxCell>
        <mxCell id="T9koa7xF462r8cfVfyGL-74" value="" style="endArrow=none;html=1;rounded=0;exitX=1;exitY=0.5;exitDx=0;exitDy=0;entryX=0;entryY=0.5;entryDx=0;entryDy=0;" edge="1" parent="1" source="T9koa7xF462r8cfVfyGL-1" target="T9koa7xF462r8cfVfyGL-71">
          <mxGeometry relative="1" as="geometry">
            <mxPoint x="310" y="250" as="sourcePoint" />
            <mxPoint x="470" y="250" as="targetPoint" />
          </mxGeometry>
        </mxCell>
        <mxCell id="T9koa7xF462r8cfVfyGL-75" value="1" style="resizable=0;html=1;whiteSpace=wrap;align=right;verticalAlign=bottom;" connectable="0" vertex="1" parent="T9koa7xF462r8cfVfyGL-74">
          <mxGeometry x="1" relative="1" as="geometry" />
        </mxCell>
        <mxCell id="T9koa7xF462r8cfVfyGL-76" value="" style="endArrow=none;html=1;rounded=0;exitX=1;exitY=0.5;exitDx=0;exitDy=0;entryX=0;entryY=0.5;entryDx=0;entryDy=0;" edge="1" parent="1" source="T9koa7xF462r8cfVfyGL-71" target="T9koa7xF462r8cfVfyGL-8">
          <mxGeometry relative="1" as="geometry">
            <mxPoint x="310" y="250" as="sourcePoint" />
            <mxPoint x="470" y="250" as="targetPoint" />
          </mxGeometry>
        </mxCell>
        <mxCell id="T9koa7xF462r8cfVfyGL-77" value="N" style="resizable=0;html=1;whiteSpace=wrap;align=right;verticalAlign=bottom;" connectable="0" vertex="1" parent="T9koa7xF462r8cfVfyGL-76">
          <mxGeometry x="1" relative="1" as="geometry" />
        </mxCell>
        <mxCell id="T9koa7xF462r8cfVfyGL-80" value="can have" style="shape=rhombus;perimeter=rhombusPerimeter;whiteSpace=wrap;html=1;align=center;" vertex="1" parent="1">
          <mxGeometry x="425" y="300" width="120" height="60" as="geometry" />
        </mxCell>
        <mxCell id="T9koa7xF462r8cfVfyGL-84" value="" style="endArrow=none;html=1;rounded=0;entryX=0;entryY=0.25;entryDx=0;entryDy=0;exitX=0.5;exitY=1;exitDx=0;exitDy=0;" edge="1" parent="1" source="T9koa7xF462r8cfVfyGL-80" target="T9koa7xF462r8cfVfyGL-7">
          <mxGeometry relative="1" as="geometry">
            <mxPoint x="310" y="290" as="sourcePoint" />
            <mxPoint x="470" y="290" as="targetPoint" />
          </mxGeometry>
        </mxCell>
        <mxCell id="T9koa7xF462r8cfVfyGL-85" value="N" style="resizable=0;html=1;whiteSpace=wrap;align=right;verticalAlign=bottom;" connectable="0" vertex="1" parent="T9koa7xF462r8cfVfyGL-84">
          <mxGeometry x="1" relative="1" as="geometry" />
        </mxCell>
        <mxCell id="T9koa7xF462r8cfVfyGL-88" value="price" style="ellipse;whiteSpace=wrap;html=1;align=center;" vertex="1" parent="1">
          <mxGeometry x="640" y="510" width="100" height="40" as="geometry" />
        </mxCell>
        <mxCell id="T9koa7xF462r8cfVfyGL-89" value="" style="endArrow=none;html=1;rounded=0;entryX=0.333;entryY=-0.032;entryDx=0;entryDy=0;entryPerimeter=0;exitX=0.5;exitY=1;exitDx=0;exitDy=0;" edge="1" parent="1" source="T9koa7xF462r8cfVfyGL-7" target="T9koa7xF462r8cfVfyGL-88">
          <mxGeometry relative="1" as="geometry">
            <mxPoint x="370" y="420" as="sourcePoint" />
            <mxPoint x="530" y="420" as="targetPoint" />
          </mxGeometry>
        </mxCell>
        <mxCell id="T9koa7xF462r8cfVfyGL-90" value="belong to" style="shape=rhombus;perimeter=rhombusPerimeter;whiteSpace=wrap;html=1;align=center;" vertex="1" parent="1">
          <mxGeometry x="520" y="480" width="90" height="50" as="geometry" />
        </mxCell>
        <mxCell id="T9koa7xF462r8cfVfyGL-95" value="" style="endArrow=none;html=1;rounded=0;entryX=0;entryY=0.75;entryDx=0;entryDy=0;" edge="1" parent="1" source="T9koa7xF462r8cfVfyGL-90" target="T9koa7xF462r8cfVfyGL-7">
          <mxGeometry relative="1" as="geometry">
            <mxPoint x="400" y="360" as="sourcePoint" />
            <mxPoint x="560" y="360" as="targetPoint" />
          </mxGeometry>
        </mxCell>
        <mxCell id="T9koa7xF462r8cfVfyGL-96" value="N" style="resizable=0;html=1;whiteSpace=wrap;align=right;verticalAlign=bottom;" connectable="0" vertex="1" parent="T9koa7xF462r8cfVfyGL-95">
          <mxGeometry x="1" relative="1" as="geometry" />
        </mxCell>
        <mxCell id="T9koa7xF462r8cfVfyGL-97" value="Product_id" style="ellipse;whiteSpace=wrap;html=1;align=center;" vertex="1" parent="1">
          <mxGeometry x="270" y="550" width="100" height="40" as="geometry" />
        </mxCell>
        <mxCell id="T9koa7xF462r8cfVfyGL-105" value="" style="endArrow=none;html=1;rounded=0;exitX=0.25;exitY=1;exitDx=0;exitDy=0;entryX=0.5;entryY=0;entryDx=0;entryDy=0;" edge="1" parent="1" source="T9koa7xF462r8cfVfyGL-8" target="T9koa7xF462r8cfVfyGL-80">
          <mxGeometry relative="1" as="geometry">
            <mxPoint x="540" y="290" as="sourcePoint" />
            <mxPoint x="700" y="290" as="targetPoint" />
          </mxGeometry>
        </mxCell>
        <mxCell id="T9koa7xF462r8cfVfyGL-106" value="N" style="resizable=0;html=1;whiteSpace=wrap;align=right;verticalAlign=bottom;" connectable="0" vertex="1" parent="T9koa7xF462r8cfVfyGL-105">
          <mxGeometry x="1" relative="1" as="geometry" />
        </mxCell>
        <mxCell id="T9koa7xF462r8cfVfyGL-108" value="" style="endArrow=none;html=1;rounded=0;entryX=0;entryY=0.5;entryDx=0;entryDy=0;exitX=1;exitY=0.25;exitDx=0;exitDy=0;" edge="1" parent="1" source="T9koa7xF462r8cfVfyGL-3" target="T9koa7xF462r8cfVfyGL-90">
          <mxGeometry relative="1" as="geometry">
            <mxPoint x="540" y="290" as="sourcePoint" />
            <mxPoint x="700" y="290" as="targetPoint" />
          </mxGeometry>
        </mxCell>
        <mxCell id="T9koa7xF462r8cfVfyGL-109" value="N" style="resizable=0;html=1;whiteSpace=wrap;align=right;verticalAlign=bottom;" connectable="0" vertex="1" parent="T9koa7xF462r8cfVfyGL-108">
          <mxGeometry x="1" relative="1" as="geometry" />
        </mxCell>
        <mxCell id="T9koa7xF462r8cfVfyGL-111" value="has" style="shape=rhombus;perimeter=rhombusPerimeter;whiteSpace=wrap;html=1;align=center;" vertex="1" parent="1">
          <mxGeometry x="210" y="280" width="120" height="60" as="geometry" />
        </mxCell>
        <mxCell id="T9koa7xF462r8cfVfyGL-114" value="" style="endArrow=none;html=1;rounded=0;entryX=1;entryY=0.5;entryDx=0;entryDy=0;exitX=0;exitY=1;exitDx=0;exitDy=0;" edge="1" parent="1" source="T9koa7xF462r8cfVfyGL-8" target="T9koa7xF462r8cfVfyGL-111">
          <mxGeometry relative="1" as="geometry">
            <mxPoint x="550" y="170" as="sourcePoint" />
            <mxPoint x="710" y="150" as="targetPoint" />
          </mxGeometry>
        </mxCell>
        <mxCell id="T9koa7xF462r8cfVfyGL-115" value="N" style="resizable=0;html=1;whiteSpace=wrap;align=right;verticalAlign=bottom;" connectable="0" vertex="1" parent="T9koa7xF462r8cfVfyGL-114">
          <mxGeometry x="1" relative="1" as="geometry" />
        </mxCell>
        <mxCell id="T9koa7xF462r8cfVfyGL-117" value="order_id" style="ellipse;whiteSpace=wrap;html=1;align=center;" vertex="1" parent="1">
          <mxGeometry x="90" y="430" width="100" height="40" as="geometry" />
        </mxCell>
        <mxCell id="T9koa7xF462r8cfVfyGL-118" value="" style="endArrow=none;html=1;rounded=0;entryX=0;entryY=0.5;entryDx=0;entryDy=0;exitX=1;exitY=0;exitDx=0;exitDy=0;" edge="1" parent="1" source="T9koa7xF462r8cfVfyGL-9" target="T9koa7xF462r8cfVfyGL-117">
          <mxGeometry relative="1" as="geometry">
            <mxPoint x="-425" y="630" as="sourcePoint" />
            <mxPoint x="-265" y="630" as="targetPoint" />
          </mxGeometry>
        </mxCell>
        <mxCell id="T9koa7xF462r8cfVfyGL-119" value="" style="endArrow=none;html=1;rounded=0;exitX=0;exitY=0.5;exitDx=0;exitDy=0;" edge="1" parent="1" source="T9koa7xF462r8cfVfyGL-111">
          <mxGeometry relative="1" as="geometry">
            <mxPoint x="290" y="430" as="sourcePoint" />
            <mxPoint x="70" y="440" as="targetPoint" />
            <Array as="points">
              <mxPoint x="150" y="380" />
            </Array>
          </mxGeometry>
        </mxCell>
        <mxCell id="T9koa7xF462r8cfVfyGL-120" value="1" style="resizable=0;html=1;whiteSpace=wrap;align=right;verticalAlign=bottom;" connectable="0" vertex="1" parent="T9koa7xF462r8cfVfyGL-119">
          <mxGeometry x="1" relative="1" as="geometry" />
        </mxCell>
        <mxCell id="T9koa7xF462r8cfVfyGL-122" value="can have" style="shape=rhombus;perimeter=rhombusPerimeter;whiteSpace=wrap;html=1;align=center;" vertex="1" parent="1">
          <mxGeometry y="290" width="120" height="60" as="geometry" />
        </mxCell>
        <mxCell id="T9koa7xF462r8cfVfyGL-124" value="" style="endArrow=none;html=1;rounded=0;exitX=0.142;exitY=1.058;exitDx=0;exitDy=0;exitPerimeter=0;entryX=0.5;entryY=0;entryDx=0;entryDy=0;" edge="1" parent="1" source="T9koa7xF462r8cfVfyGL-1" target="T9koa7xF462r8cfVfyGL-122">
          <mxGeometry relative="1" as="geometry">
            <mxPoint x="290" y="430" as="sourcePoint" />
            <mxPoint x="450" y="430" as="targetPoint" />
          </mxGeometry>
        </mxCell>
        <mxCell id="T9koa7xF462r8cfVfyGL-125" value="1" style="resizable=0;html=1;whiteSpace=wrap;align=right;verticalAlign=bottom;" connectable="0" vertex="1" parent="T9koa7xF462r8cfVfyGL-124">
          <mxGeometry x="1" relative="1" as="geometry" />
        </mxCell>
        <mxCell id="T9koa7xF462r8cfVfyGL-126" value="" style="endArrow=none;html=1;rounded=0;exitX=0.5;exitY=1;exitDx=0;exitDy=0;entryX=0.5;entryY=0;entryDx=0;entryDy=0;" edge="1" parent="1" source="T9koa7xF462r8cfVfyGL-122" target="T9koa7xF462r8cfVfyGL-9">
          <mxGeometry relative="1" as="geometry">
            <mxPoint x="290" y="430" as="sourcePoint" />
            <mxPoint x="450" y="430" as="targetPoint" />
          </mxGeometry>
        </mxCell>
        <mxCell id="T9koa7xF462r8cfVfyGL-127" value="N" style="resizable=0;html=1;whiteSpace=wrap;align=right;verticalAlign=bottom;" connectable="0" vertex="1" parent="T9koa7xF462r8cfVfyGL-126">
          <mxGeometry x="1" relative="1" as="geometry" />
        </mxCell>
        <mxCell id="T9koa7xF462r8cfVfyGL-128" value="shippingAddress" style="ellipse;whiteSpace=wrap;html=1;align=center;" vertex="1" parent="1">
          <mxGeometry x="10" y="550" width="100" height="40" as="geometry" />
        </mxCell>
        <mxCell id="T9koa7xF462r8cfVfyGL-131" value="" style="endArrow=none;html=1;rounded=0;exitX=0.5;exitY=1;exitDx=0;exitDy=0;entryX=0.354;entryY=0.127;entryDx=0;entryDy=0;entryPerimeter=0;" edge="1" parent="1" source="T9koa7xF462r8cfVfyGL-9" target="T9koa7xF462r8cfVfyGL-128">
          <mxGeometry relative="1" as="geometry">
            <mxPoint x="290" y="500" as="sourcePoint" />
            <mxPoint x="450" y="500" as="targetPoint" />
          </mxGeometry>
        </mxCell>
        <mxCell id="T9koa7xF462r8cfVfyGL-135" value="" style="endArrow=none;html=1;rounded=0;entryX=1;entryY=0;entryDx=0;entryDy=0;exitX=0;exitY=0.25;exitDx=0;exitDy=0;" edge="1" parent="1" source="T9koa7xF462r8cfVfyGL-3" target="T9koa7xF462r8cfVfyGL-97">
          <mxGeometry relative="1" as="geometry">
            <mxPoint x="290" y="310" as="sourcePoint" />
            <mxPoint x="450" y="310" as="targetPoint" />
          </mxGeometry>
        </mxCell>
        <mxCell id="T9koa7xF462r8cfVfyGL-136" value="order_id" style="ellipse;whiteSpace=wrap;html=1;align=center;" vertex="1" parent="1">
          <mxGeometry x="810" y="400" width="100" height="40" as="geometry" />
        </mxCell>
        <mxCell id="T9koa7xF462r8cfVfyGL-137" value="" style="endArrow=none;html=1;rounded=0;entryX=0;entryY=0.5;entryDx=0;entryDy=0;exitX=1;exitY=0.25;exitDx=0;exitDy=0;" edge="1" parent="1" source="T9koa7xF462r8cfVfyGL-7" target="T9koa7xF462r8cfVfyGL-136">
          <mxGeometry relative="1" as="geometry">
            <mxPoint x="290" y="340" as="sourcePoint" />
            <mxPoint x="450" y="340" as="targetPoint" />
          </mxGeometry>
        </mxCell>
        <mxCell id="T9koa7xF462r8cfVfyGL-139" value="product_id" style="ellipse;whiteSpace=wrap;html=1;align=center;" vertex="1" parent="1">
          <mxGeometry x="320" y="635" width="100" height="40" as="geometry" />
        </mxCell>
        <mxCell id="T9koa7xF462r8cfVfyGL-140" value="" style="endArrow=none;html=1;rounded=0;entryX=0.684;entryY=0.062;entryDx=0;entryDy=0;entryPerimeter=0;exitX=0.25;exitY=1;exitDx=0;exitDy=0;" edge="1" parent="1" source="T9koa7xF462r8cfVfyGL-3" target="T9koa7xF462r8cfVfyGL-139">
          <mxGeometry relative="1" as="geometry">
            <mxPoint x="290" y="300" as="sourcePoint" />
            <mxPoint x="450" y="300" as="targetPoint" />
          </mxGeometry>
        </mxCell>
      </root>
    </mxGraphModel>
  </diagram>
</mxfile>
